<svg xmlns="http://www.w3.org/2000/svg" width="40.5" height="25.859" viewBox="0 0 40.5 25.859">
  <g id="Group_340" data-name="Group 340" transform="translate(3.748 -64.255)">
    <g id="Group_340-2" data-name="Group 340" transform="translate(-3.498 64.505)">
      <path id="Path_556" data-name="Path 556" d="M34.706,64.5H-1.7a1.81,1.81,0,0,0-1.8,1.819v21.72a1.81,1.81,0,0,0,1.8,1.819H34.706a1.81,1.81,0,0,0,1.8-1.819V66.324A1.81,1.81,0,0,0,34.706,64.5Zm-37.35,1.819a.955.955,0,0,1,.943-.965H4c.016.183.025.369.025.555A6.006,6.006,0,0,1-1.92,71.963a5.964,5.964,0,0,1-.725-.044ZM4,89.009H-1.7a.955.955,0,0,1-.943-.965V82.368a5.809,5.809,0,0,1,.725-.045,6.006,6.006,0,0,1,5.949,6.049A6.254,6.254,0,0,1,4,89.009Zm31.652-.965a.955.955,0,0,1-.943.965h-5.67A6.252,6.252,0,0,1,29,88.372a5.948,5.948,0,0,1,6.645-6.008Zm0-6.539a6.518,6.518,0,0,0-.7-.037,6.861,6.861,0,0,0-6.8,6.9c0,.212.01.425.029.637H4.853c.019-.212.029-.425.029-.637a6.862,6.862,0,0,0-6.8-6.9,6.668,6.668,0,0,0-.725.04v-8.73a6.867,6.867,0,0,0,.725.039,6.861,6.861,0,0,0,6.8-6.9c0-.186-.007-.371-.022-.555h23.4a7.019,7.019,0,0,0-.112,1.251,6.862,6.862,0,0,0,6.8,6.9,6.73,6.73,0,0,0,.7-.037Zm0-8.886A5.948,5.948,0,0,1,29,66.611a6.185,6.185,0,0,1,.127-1.251h5.575a.955.955,0,0,1,.943.965Z" transform="translate(3.498 -64.505)" fill="#170a4b" stroke="#170a4b" stroke-width="0.5"/>
    </g>
    <g id="Group_341" data-name="Group 341" transform="translate(10.149 69.853)">
      <path id="Path_557" data-name="Path 557" d="M185.532,153.528a7.332,7.332,0,1,1,7.231-7.331A7.29,7.29,0,0,1,185.532,153.528Zm0-13.755a6.425,6.425,0,1,0,6.324,6.424A6.382,6.382,0,0,0,185.532,139.773Z" transform="translate(-178.301 -138.866)" fill="#170a4b" stroke="#170a4b" stroke-width="0.5"/>
    </g>
  </g>
</svg>
