<svg xmlns="http://www.w3.org/2000/svg" width="51.25" height="31.02" viewBox="0 0 51.25 31.02">
  <g id="Group_404" data-name="Group 404" transform="translate(-29 -296)">
    <g id="Group_403" data-name="Group 403" transform="translate(42.498 183.975)">
      <g id="Group_327" data-name="Group 327" transform="translate(-5.498 115.255)">
        <path id="Path_542" data-name="Path 542" d="M20.367,115.255H-4.077a1.41,1.41,0,0,0-1.421,1.4v22.528H-1a3.068,3.068,0,0,1,0-.836H-4.647V116.652a.566.566,0,0,1,.569-.56H20.367a.566.566,0,0,1,.569.56v21.691H14.6a3.068,3.068,0,0,1,0,.836h7.189V116.652A1.41,1.41,0,0,0,20.367,115.255ZM5.318,138.343a3.068,3.068,0,0,1,0,.836H8.276a3.068,3.068,0,0,1,0-.836Z" transform="translate(5.498 -115.255)" fill="#252d2e" stroke="#15084a" stroke-width="0.5"/>
      </g>
      <g id="Group_328" data-name="Group 328" transform="translate(-5.073 133.492)">
        <rect id="Rectangle_610" data-name="Rectangle 610" width="26.434" height="0.851" transform="translate(0)" fill="#252d2e" stroke="#15084a" stroke-width="0.5"/>
      </g>
      <g id="Group_329" data-name="Group 329" transform="translate(23.32 118.418)">
        <path id="Path_543" data-name="Path 543" d="M350.057,165.848,345.67,157.1a1.754,1.754,0,0,0-1.58-.964h-7.928V176.9h3.044a3.052,3.052,0,0,1,0-.834h-2.193V156.969h7.077a.905.905,0,0,1,.816.5l1.22,2.432.418.834h0l2.749,5.482a1.89,1.89,0,0,1,.2.815v7.687a1.36,1.36,0,0,1-1.372,1.344h-2.593a3.052,3.052,0,0,1,0,.834h2.593a2.2,2.2,0,0,0,2.224-2.178v-7.662A2.713,2.713,0,0,0,350.057,165.848Z" transform="translate(-336.162 -156.135)" fill="#252d2e" stroke="#15084a" stroke-width="0.5"/>
      </g>
      <g id="Group_330" data-name="Group 330" transform="translate(-1.883 134.713)">
        <path id="Path_544" data-name="Path 544" d="M53.927,380.924a3.615,3.615,0,0,0-7.179,0,3.558,3.558,0,0,0,0,.851,3.615,3.615,0,0,0,7.179,0,3.559,3.559,0,0,0,0-.851Zm-3.59,3.615a3.194,3.194,0,0,1-3.161-2.764,3.176,3.176,0,0,1,0-.851,3.189,3.189,0,0,1,6.322,0,3.177,3.177,0,0,1,0,.851A3.194,3.194,0,0,1,50.337,384.54Z" transform="translate(-46.296 -377.309)" fill="#f5f5f5" stroke="#15084a" stroke-width="0.5"/>
        <path id="Path_545" data-name="Path 545" d="M49.281,375.85a4.049,4.049,0,1,0,.022.426A4.047,4.047,0,0,0,49.281,375.85Zm-.829.426a3.1,3.1,0,0,1-.029.426,3.189,3.189,0,0,1-6.322,0,3.177,3.177,0,0,1,0-.851,3.189,3.189,0,0,1,6.322,0A3.1,3.1,0,0,1,48.452,376.275Z" transform="translate(-41.222 -372.235)" fill="#252d2e" stroke="#15084a" stroke-width="0.5"/>
      </g>
      <g id="Group_331" data-name="Group 331" transform="translate(7.152 134.713)">
        <path id="Path_546" data-name="Path 546" d="M173.867,380.924a3.615,3.615,0,0,0-7.179,0,3.556,3.556,0,0,0,0,.851,3.615,3.615,0,0,0,7.179,0,3.56,3.56,0,0,0,0-.851Zm-3.59,3.615a3.194,3.194,0,0,1-3.161-2.764,3.179,3.179,0,0,1,0-.851,3.189,3.189,0,0,1,6.322,0,3.177,3.177,0,0,1,0,.851A3.2,3.2,0,0,1,170.277,384.54Z" transform="translate(-166.236 -377.309)" fill="#f5f5f5" stroke="#15084a" stroke-width="0.5"/>
        <path id="Path_547" data-name="Path 547" d="M169.221,375.85a4.048,4.048,0,1,0,.022.426A4.047,4.047,0,0,0,169.221,375.85Zm-.829.426a3.1,3.1,0,0,1-.029.426,3.189,3.189,0,0,1-6.322,0,3.178,3.178,0,0,1,0-.851,3.189,3.189,0,0,1,6.322,0A3.1,3.1,0,0,1,168.392,376.275Z" transform="translate(-161.162 -372.235)" fill="#252d2e" stroke="#15084a" stroke-width="0.5"/>
      </g>
      <g id="Group_332" data-name="Group 332" transform="translate(25.484 134.713)">
        <path id="Path_548" data-name="Path 548" d="M376.837,380.924a3.615,3.615,0,0,0-7.179,0,3.562,3.562,0,0,0,0,.851,3.615,3.615,0,0,0,7.179,0,3.558,3.558,0,0,0,0-.851Zm-3.59,3.615a3.194,3.194,0,0,1-3.161-2.764,3.171,3.171,0,0,1,0-.851,3.189,3.189,0,0,1,6.322,0,3.184,3.184,0,0,1,0,.851A3.2,3.2,0,0,1,373.247,384.54Z" transform="translate(-369.206 -377.309)" fill="#f5f5f5" stroke="#15084a" stroke-width="0.5"/>
        <path id="Path_549" data-name="Path 549" d="M372.191,375.85a4.032,4.032,0,1,0,.023.426A4.047,4.047,0,0,0,372.191,375.85Zm-.829.426a3.1,3.1,0,0,1-.029.426,3.189,3.189,0,0,1-6.322,0,3.178,3.178,0,0,1,0-.851,3.189,3.189,0,0,1,6.322,0A3.1,3.1,0,0,1,371.362,376.275Z" transform="translate(-364.132 -372.235)" fill="#252d2e" stroke="#15084a" stroke-width="0.5"/>
      </g>
      <g id="Group_333" data-name="Group 333" transform="translate(29.099 122.108)">
        <path id="Path_550" data-name="Path 550" d="M418.688,214.066l-6.841-2.456a1.5,1.5,0,0,1-.992-1.41v-2.962a1.455,1.455,0,0,1,1.453-1.453h3.15v.851h-3.15a.6.6,0,0,0-.6.6V210.2a.649.649,0,0,0,.428.609l6.841,2.456Z" transform="translate(-410.855 -205.784)" fill="#252d2e" stroke="#15084a" stroke-width="0.5"/>
      </g>
      <g id="Group_334" data-name="Group 334" transform="translate(29.525 129.489)">
        <path id="Path_551" data-name="Path 551" d="M418.151,303h-1.367a.426.426,0,1,1,0-.851h1.367a.426.426,0,1,1,0,.851Z" transform="translate(-416.359 -302.151)" fill="#252d2e" stroke="#15084a" stroke-width="0.5"/>
      </g>
    </g>
    <g id="Ellipse_351" data-name="Ellipse 351" transform="translate(29 296)" fill="#fff" stroke="#15084a" stroke-width="1.5">
      <circle cx="11" cy="11" r="11" stroke="none"/>
      <circle cx="11" cy="11" r="10.25" fill="none"/>
    </g>
    <path id="Path_612" data-name="Path 612" d="M3695.219,307.962l3.838,3.472,6.4-7.492" transform="translate(-3660)" fill="none" stroke="#15084a" stroke-linecap="round" stroke-width="1.5"/>
  </g>
</svg>
